<?xml version="1.0" encoding="utf-8"?>
<!-- Generator: Adobe Illustrator 26.3.0, SVG Export Plug-In . SVG Version: 6.00 Build 0)  -->
<svg version="1.1" id="Layer" xmlns="http://www.w3.org/2000/svg" xmlns:xlink="http://www.w3.org/1999/xlink" x="0px" y="0px"
	 viewBox="0 0 32 26.7" style="enable-background:new 0 0 32 26.7;" xml:space="preserve">
<style type="text/css">
	.st0{fill:#1A0D4D;}
</style>
<path class="st0" d="M1.2,14.7h26.6l-10.2,9.7c-0.5,0.5-0.6,1.4,0,1.9c0.5,0.5,1.4,0.6,1.9,0l11.6-11c0.5-0.6,0.8-1.2,0.8-1.9
	s-0.3-1.4-0.8-1.9L19.5,0.4C19.2,0.2,18.9,0,18.6,0c-0.4,0-0.7,0.1-1,0.4c-0.5,0.5-0.5,1.4,0,1.9L27.9,12H1.3C0.6,12,0,12.6,0,13.3
	S0.5,14.7,1.2,14.7L1.2,14.7z"/>
</svg>
