<?xml version="1.0" encoding="utf-8"?>
<!-- Generator: Adobe Illustrator 26.3.0, SVG Export Plug-In . SVG Version: 6.00 Build 0)  -->
<svg version="1.1" id="Layer" xmlns="http://www.w3.org/2000/svg" xmlns:xlink="http://www.w3.org/1999/xlink" x="0px" y="0px"
	 viewBox="0 0 32 26.7" style="enable-background:new 0 0 32 26.7;" xml:space="preserve">
<style type="text/css">
	.st0{fill:#1A0D4D;}
</style>
<path class="st0" d="M30.7,12H4.1l10.2-9.7c0.5-0.5,0.6-1.4,0-1.9c-0.5-0.5-1.4-0.6-1.9,0l-11.6,11C0.3,12,0,12.6,0,13.3
	s0.3,1.4,0.8,1.9l11.6,11.1c0.3,0.2,0.6,0.4,0.9,0.4c0.4,0,0.7-0.1,1-0.4c0.5-0.5,0.5-1.4,0-1.9L4,14.7h26.6c0.7,0,1.3-0.6,1.3-1.3
	S31.4,12,30.7,12L30.7,12z"/>
</svg>
