<?xml version="1.0" encoding="utf-8"?>
<!-- Generator: Adobe Illustrator 26.3.0, SVG Export Plug-In . SVG Version: 6.00 Build 0)  -->
<svg version="1.1" id="Layer_1" xmlns="http://www.w3.org/2000/svg" xmlns:xlink="http://www.w3.org/1999/xlink" x="0px" y="0px"
	 viewBox="0 0 26 19.8" style="enable-background:new 0 0 26 19.8;" xml:space="preserve">
<style type="text/css">
	.st0{fill:#12C8EF;}
</style>
<path class="st0" d="M22,1.7C22,1.7,22,1.6,22,1.7c-1.7-0.8-3.5-1.4-5.3-1.7c0,0-0.1,0-0.1,0c-0.2,0.4-0.5,0.9-0.7,1.4
	c-2-0.3-4-0.3-5.9,0C9.8,0.9,9.6,0.5,9.4,0c0,0-0.1,0-0.1,0C7.4,0.3,5.7,0.9,4,1.6c0,0,0,0,0,0c-3.4,5-4.3,9.9-3.8,14.8
	c0,0,0,0,0,0.1c2,1.5,4.2,2.6,6.5,3.3c0,0,0.1,0,0.1,0c0.5-0.7,0.9-1.4,1.3-2.2c0,0,0-0.1,0-0.1c0,0,0,0,0,0c-0.7-0.3-1.4-0.6-2-1
	c0,0-0.1-0.1,0-0.1c0,0,0,0,0,0c0.1-0.1,0.3-0.2,0.4-0.3c0,0,0.1,0,0.1,0c4.3,1.9,8.9,1.9,13.1,0c0,0,0.1,0,0.1,0
	c0.1,0.1,0.3,0.2,0.4,0.3c0,0,0,0.1,0,0.1c0,0,0,0,0,0c-0.6,0.4-1.3,0.7-2,1c0,0-0.1,0.1,0,0.1c0,0,0,0,0,0c0.4,0.8,0.8,1.5,1.3,2.2
	c0,0,0.1,0,0.1,0c2.3-0.7,4.5-1.8,6.5-3.3c0,0,0,0,0-0.1C26.4,10.9,25,6,22,1.7z M8.7,13.5c-1.3,0-2.3-1.2-2.3-2.6s1-2.6,2.3-2.6
	c1.3,0,2.4,1.2,2.3,2.6C11,12.3,10,13.5,8.7,13.5z M17.3,13.5c-1.3,0-2.3-1.2-2.3-2.6s1-2.6,2.3-2.6c1.3,0,2.4,1.2,2.3,2.6
	C19.7,12.3,18.6,13.5,17.3,13.5z"/>
</svg>
