<?xml version="1.0" encoding="utf-8"?>
<!-- Generator: Adobe Illustrator 26.3.0, SVG Export Plug-In . SVG Version: 6.00 Build 0)  -->
<svg version="1.1" id="Layer_1" xmlns="http://www.w3.org/2000/svg" xmlns:xlink="http://www.w3.org/1999/xlink" x="0px" y="0px"
	 viewBox="0 0 391 486.9" style="enable-background:new 0 0 391 486.9;" xml:space="preserve">
<style type="text/css">
	.st0{fill:#1A0D4D;}
</style>
<path class="st0" d="M109.7,267.4l109.7,109.7L109.7,486.9L0,377.1L109.7,267.4z M254.2,202.3h-87.7V290h87.7V202.3z M179.6,118.7
	v61.6h61.6v-61.6H179.6z M275.5,45.7h-36v36h36V45.7z M339.9,63.7h24.7V39h-24.7V63.7z M302.8,0v17.9h17.9V0H302.8z M352.3,168.9
	H391v-38.7h-38.7V168.9z M342.1,202.3h-73.2v73.2h73.2V202.3z M278.8,162h53.4v-53.4h-53.4V162z"/>
</svg>
