<?xml version="1.0" encoding="utf-8"?>
<!-- Generator: Adobe Illustrator 26.3.0, SVG Export Plug-In . SVG Version: 6.00 Build 0)  -->
<svg version="1.1" id="Layer_1" xmlns="http://www.w3.org/2000/svg" xmlns:xlink="http://www.w3.org/1999/xlink" x="0px" y="0px"
	 viewBox="0 0 300 118.9" style="enable-background:new 0 0 300 118.9;" xml:space="preserve">
<style type="text/css">
	.st0{fill:#1A0D4D;}
	.st1{opacity:0.2;fill-rule:evenodd;clip-rule:evenodd;fill:#30245E;}
	.st2{fill:url(#S_00000016786756352049434720000008208799880292094128_);}
	.st3{fill:url(#E_00000091727176489407307700000005176232023789265846_);}
	.st4{fill-rule:evenodd;clip-rule:evenodd;fill:url(#A_00000008125716426071221530000015870093903943057332_);}
	.st5{fill:url(#SVGID_1_);}
</style>
<g>
	<g id="Text">
		<g id="Tagline-Poppins">
			<path class="st0" d="M111.8,116.4c-1.4,0-2.4-0.8-2.4-1.9h1c0.1,0.6,0.5,1.2,1.4,1.2c0.9,0,1.4-0.5,1.4-1.2
				c0-1.9-3.8-0.7-3.8-3.3c0-1.2,0.9-1.9,2.3-1.9c1.3,0,2.2,0.7,2.3,1.8h-1c-0.1-0.5-0.5-1-1.4-1c-0.8,0-1.3,0.4-1.3,1.1
				c0,1.8,3.8,0.7,3.8,3.3C114.2,115.4,113.4,116.4,111.8,116.4z"/>
			<path class="st0" d="M118.4,110.7c1,0,1.7,0.5,2,1.1v-1h0.9v5.5h-0.9v-1c-0.3,0.6-1,1.1-2.1,1.1c-1.5,0-2.6-1.2-2.6-2.9
				C115.8,111.8,116.9,110.7,118.4,110.7z M118.6,111.5c-1,0-1.9,0.7-1.9,2c0,1.3,0.9,2.1,1.9,2.1s1.9-0.8,1.9-2
				C120.4,112.3,119.6,111.5,118.6,111.5z"/>
			<path class="st0" d="M125.4,116.4c-1.3,0-2.2-0.7-2.2-1.7h0.9c0.1,0.5,0.5,0.9,1.3,0.9c0.7,0,1.1-0.4,1.1-0.8
				c0-1.2-3.3-0.5-3.3-2.6c0-0.8,0.8-1.5,2-1.5c1.2,0,2,0.7,2.1,1.7h-0.9c0-0.6-0.5-1-1.2-1c-0.7,0-1.1,0.3-1.1,0.8
				c0,1.3,3.2,0.6,3.2,2.6C127.4,115.7,126.7,116.4,125.4,116.4z"/>
			<path class="st0" d="M129.3,108.9h0.9v4.4l2.1-2.4h1.3l-2.6,2.7l2.6,2.8h-1.2l-2.2-2.4v2.4h-0.9V108.9z"/>
			<path class="st0" d="M137.4,110.7c1,0,1.7,0.5,2,1.1v-1h0.9v5.5h-0.9v-1c-0.3,0.6-1,1.1-2.1,1.1c-1.5,0-2.6-1.2-2.6-2.9
				C134.8,111.8,135.9,110.7,137.4,110.7z M137.5,111.5c-1,0-1.9,0.7-1.9,2c0,1.3,0.9,2.1,1.9,2.1s1.9-0.8,1.9-2
				C139.4,112.3,138.6,111.5,137.5,111.5z"/>
			<path class="st0" d="M142.7,111.6H142v-0.8h0.7v-1.4h0.9v1.4h1.4v0.8h-1.4v3.2c0,0.5,0.2,0.7,0.8,0.7h0.7v0.8h-0.8
				c-1,0-1.5-0.4-1.5-1.5V111.6z"/>
			<path class="st0" d="M149.1,110.7c1.4,0,2.3,0.7,2.5,1.9h-1c-0.2-0.7-0.7-1.1-1.6-1.1c-1,0-1.7,0.7-1.7,2.1
				c0,1.4,0.7,2.1,1.7,2.1c0.8,0,1.4-0.4,1.6-1.1h1c-0.3,1.1-1.2,1.9-2.5,1.9c-1.6,0-2.7-1.1-2.7-2.8
				C146.4,111.8,147.5,110.7,149.1,110.7z"/>
			<path class="st0" d="M153.4,108.9h0.9v2.7c0.4-0.6,1-0.9,1.8-0.9c1.2,0,2.2,0.8,2.2,2.4v3.2h-0.9v-3.1c0-1.1-0.6-1.7-1.5-1.7
				c-0.9,0-1.6,0.6-1.6,1.8v3h-0.9V108.9z"/>
			<path class="st0" d="M162.8,116.4c-1.6,0-2.7-1.1-2.7-2.8c0-1.7,1.1-2.8,2.7-2.8c1.6,0,2.6,1.1,2.6,2.6c0,0.2,0,0.4,0,0.6H161
				c0.1,1.1,0.9,1.7,1.8,1.7c0.8,0,1.3-0.4,1.5-1h1C165.1,115.6,164.2,116.4,162.8,116.4z M161.1,113.2h3.5c0-1.1-0.8-1.7-1.7-1.7
				C161.9,111.5,161.2,112.1,161.1,113.2z"/>
			<path class="st0" d="M166.6,110.8h0.9l1.3,4.6l1.4-4.6h0.9l1.3,4.6l1.2-4.6h0.9l-1.7,5.5h-0.9l-1.3-4.4l-1.3,4.4h-0.9
				L166.6,110.8z"/>
			<path class="st0" d="M178.4,110.7c1,0,1.7,0.5,2,1.1v-1h0.9v5.5h-0.9v-1c-0.3,0.6-1,1.1-2.1,1.1c-1.5,0-2.6-1.2-2.6-2.9
				C175.8,111.8,176.9,110.7,178.4,110.7z M178.5,111.5c-1,0-1.9,0.7-1.9,2c0,1.3,0.9,2.1,1.9,2.1s1.9-0.8,1.9-2
				C180.4,112.3,179.5,111.5,178.5,111.5z"/>
			<path class="st0" d="M187.5,113.2c0-1.1-0.6-1.7-1.5-1.7c-0.9,0-1.6,0.6-1.6,1.8v3h-0.9v-5.5h0.9v0.8c0.4-0.6,1-0.9,1.8-0.9
				c1.3,0,2.2,0.8,2.2,2.4v3.2h-0.9V113.2z"/>
			<path class="st0" d="M197.5,110.1h-2.8v2.3h2.5v0.8h-2.5v2.4h2.8v0.8h-3.8v-7h3.8V110.1z"/>
			<path class="st0" d="M201.5,116.4c-1.3,0-2.2-0.7-2.2-1.7h0.9c0.1,0.5,0.5,0.9,1.3,0.9c0.7,0,1.1-0.4,1.1-0.8
				c0-1.2-3.3-0.5-3.3-2.6c0-0.8,0.8-1.5,2-1.5c1.2,0,2,0.7,2.1,1.7h-0.9c0-0.6-0.5-1-1.2-1c-0.7,0-1.1,0.3-1.1,0.8
				c0,1.3,3.2,0.6,3.2,2.6C203.5,115.7,202.7,116.4,201.5,116.4z"/>
			<path class="st0" d="M208.3,110.7c1.5,0,2.6,1.1,2.6,2.8c0,1.7-1.1,2.9-2.6,2.9c-1,0-1.7-0.5-2.1-1.1v3.6h-0.9v-8.1h0.9v1
				C206.6,111.3,207.3,110.7,208.3,110.7z M208.1,111.5c-1,0-1.9,0.8-1.9,2c0,1.3,0.9,2,1.9,2c1,0,1.9-0.8,1.9-2.1
				C210,112.3,209.2,111.5,208.1,111.5z"/>
			<path class="st0" d="M215.1,116.4c-1.6,0-2.7-1.1-2.7-2.8c0-1.7,1.2-2.8,2.8-2.8c1.6,0,2.8,1.1,2.8,2.8
				C218,115.3,216.7,116.4,215.1,116.4z M215.1,115.6c1,0,1.9-0.7,1.9-2c0-1.4-0.9-2-1.9-2c-1,0-1.8,0.7-1.8,2
				C213.3,115,214.2,115.6,215.1,115.6z"/>
			<path class="st0" d="M220.7,116.3h-0.9v-5.5h0.9v0.9c0.3-0.6,0.9-1,1.8-1v0.9h-0.2c-0.9,0-1.5,0.4-1.5,1.7V116.3z"/>
			<path class="st0" d="M224.3,111.6h-0.7v-0.8h0.7v-1.4h0.9v1.4h1.4v0.8h-1.4v3.2c0,0.5,0.2,0.7,0.8,0.7h0.7v0.8h-0.8
				c-1,0-1.5-0.4-1.5-1.5V111.6z"/>
			<path class="st0" d="M230.3,116.4c-1.3,0-2.2-0.7-2.2-1.7h0.9c0.1,0.5,0.5,0.9,1.3,0.9c0.7,0,1.1-0.4,1.1-0.8
				c0-1.2-3.2-0.5-3.2-2.6c0-0.8,0.8-1.5,2-1.5c1.2,0,2,0.7,2.1,1.7h-0.9c0-0.6-0.5-1-1.2-1c-0.7,0-1.1,0.3-1.1,0.8
				c0,1.3,3.2,0.6,3.2,2.6C232.3,115.7,231.5,116.4,230.3,116.4z"/>
			<path class="st0" d="M241.6,114.8h-3.1l-0.6,1.6h-1l2.5-7h1.1l2.5,7h-1L241.6,114.8z M240.1,110.5l-1.3,3.5h2.5L240.1,110.5z"/>
			<path class="st0" d="M246.8,116.4c-1.3,0-2.2-0.7-2.2-1.7h0.9c0.1,0.5,0.5,0.9,1.3,0.9c0.7,0,1.1-0.4,1.1-0.8
				c0-1.2-3.2-0.5-3.2-2.6c0-0.8,0.8-1.5,2-1.5c1.2,0,2,0.7,2.1,1.7h-0.9c0-0.6-0.5-1-1.2-1c-0.7,0-1.1,0.3-1.1,0.8
				c0,1.3,3.2,0.6,3.2,2.6C248.8,115.7,248,116.4,246.8,116.4z"/>
			<path class="st0" d="M252.6,116.4c-1.3,0-2.2-0.7-2.2-1.7h0.9c0.1,0.5,0.5,0.9,1.3,0.9c0.7,0,1.1-0.4,1.1-0.8
				c0-1.2-3.3-0.5-3.3-2.6c0-0.8,0.8-1.5,2-1.5c1.2,0,2,0.7,2.1,1.7h-0.9c0-0.6-0.5-1-1.2-1c-0.7,0-1.1,0.3-1.1,0.8
				c0,1.3,3.2,0.6,3.2,2.6C254.6,115.7,253.8,116.4,252.6,116.4z"/>
			<path class="st0" d="M258.9,116.4c-1.6,0-2.7-1.1-2.7-2.8c0-1.7,1.2-2.8,2.8-2.8c1.6,0,2.8,1.1,2.8,2.8
				C261.7,115.3,260.5,116.4,258.9,116.4z M258.9,115.6c1,0,1.9-0.7,1.9-2c0-1.4-0.9-2-1.9-2c-1,0-1.8,0.7-1.8,2
				C257.1,115,258,115.6,258.9,115.6z"/>
			<path class="st0" d="M265.9,110.7c1.4,0,2.3,0.7,2.5,1.9h-1c-0.2-0.7-0.7-1.1-1.6-1.1c-1,0-1.7,0.7-1.7,2.1
				c0,1.4,0.7,2.1,1.7,2.1c0.8,0,1.4-0.4,1.6-1.1h1c-0.3,1.1-1.2,1.9-2.5,1.9c-1.6,0-2.7-1.1-2.7-2.8
				C263.2,111.8,264.3,110.7,265.9,110.7z"/>
			<path class="st0" d="M270.1,109.3c0-0.4,0.3-0.6,0.6-0.6c0.3,0,0.6,0.3,0.6,0.6c0,0.4-0.3,0.6-0.6,0.6
				C270.4,109.9,270.1,109.7,270.1,109.3z M270.2,110.8h0.9v5.5h-0.9V110.8z"/>
			<path class="st0" d="M275.6,110.7c1,0,1.7,0.5,2,1.1v-1h0.9v5.5h-0.9v-1c-0.3,0.6-1,1.1-2.1,1.1c-1.5,0-2.6-1.2-2.6-2.9
				C273,111.8,274.1,110.7,275.6,110.7z M275.8,111.5c-1,0-1.9,0.7-1.9,2c0,1.3,0.9,2.1,1.9,2.1c1,0,1.9-0.8,1.9-2
				C277.6,112.3,276.8,111.5,275.8,111.5z"/>
			<path class="st0" d="M280.9,111.6h-0.7v-0.8h0.7v-1.4h0.9v1.4h1.4v0.8h-1.4v3.2c0,0.5,0.2,0.7,0.8,0.7h0.7v0.8h-0.8
				c-1,0-1.5-0.4-1.5-1.5V111.6z"/>
			<path class="st0" d="M284.8,109.3c0-0.4,0.3-0.6,0.6-0.6c0.3,0,0.6,0.3,0.6,0.6c0,0.4-0.3,0.6-0.6,0.6
				C285.1,109.9,284.8,109.7,284.8,109.3z M284.9,110.8h0.9v5.5h-0.9V110.8z"/>
			<path class="st0" d="M290.4,116.4c-1.6,0-2.7-1.1-2.7-2.8c0-1.7,1.2-2.8,2.8-2.8c1.6,0,2.8,1.1,2.8,2.8
				C293.2,115.3,292,116.4,290.4,116.4z M290.4,115.6c1,0,1.9-0.7,1.9-2c0-1.4-0.9-2-1.9-2c-1,0-1.8,0.7-1.8,2
				C288.6,115,289.5,115.6,290.4,115.6z"/>
			<path class="st0" d="M299.1,113.2c0-1.1-0.6-1.7-1.5-1.7c-0.9,0-1.6,0.6-1.6,1.8v3H295v-5.5h0.9v0.8c0.4-0.6,1-0.9,1.8-0.9
				c1.3,0,2.2,0.8,2.2,2.4v3.2h-0.9V113.2z"/>
		</g>
		<rect id="Line" x="109.3" y="102.7" class="st1" width="190.7" height="0.7"/>
		
			<linearGradient id="S_00000133516505051102096220000005846992217494605442_" gradientUnits="userSpaceOnUse" x1="136.9314" y1="96.1501" x2="136.9314" y2="14.4774">
			<stop  offset="0" style="stop-color:#F221DE"/>
			<stop  offset="1" style="stop-color:#12C8EF"/>
		</linearGradient>
		<path id="S" style="fill:url(#S_00000133516505051102096220000005846992217494605442_);" d="M110.8,85.2
			c2.6,2.6,12.2,10.9,27,10.9c16.7,0,26.8-11.8,26.8-23.5c0-15.4-14.1-22.3-22.9-25.9c-9-3.6-12.4-6.8-12.4-11
			c0-3.1,3.1-5.8,7.1-5.8c6.9,0,15.2,6.2,16.2,6.8c1,0.8,0.8,0.6,1.5,1.3l8.8-12.5c0.5-0.8,0.4-0.8,0.7-1.5
			c-3.4-2.5-14.5-9.7-26.3-9.7c-17.5,0-26.2,11.3-26.2,22.6c0,13.6,12.3,21.2,22,25.1c7.7,3.1,11.7,6.7,11.7,11.5
			c0,4-3.3,6.8-7.8,6.8c-7.5,0-15.7-6-16.1-6.2c-0.8-0.6-0.6-0.6-2-1.6l-9.5,11C110.6,85.1,109.6,84.1,110.8,85.2z"/>
		
			<linearGradient id="E_00000065754610598640031270000016877953669803293355_" gradientUnits="userSpaceOnUse" x1="195.8734" y1="94.5888" x2="195.8734" y2="16.1273">
			<stop  offset="0" style="stop-color:#F221DE"/>
			<stop  offset="1" style="stop-color:#12C8EF"/>
		</linearGradient>
		<polygon id="E" style="fill:url(#E_00000065754610598640031270000016877953669803293355_);" points="170.2,94.6 170.2,16.1 
			221.5,16.1 214.2,32.3 187.9,32.3 187.8,46.9 209.8,46.9 209.8,63.8 187.8,63.8 187.8,78.5 212.7,78.5 221.5,94.6 		"/>
		
			<linearGradient id="A_00000152247242365409128770000011670763162439427257_" gradientUnits="userSpaceOnUse" x1="263.3332" y1="95.3226" x2="263.3332" y2="16.1263">
			<stop  offset="0" style="stop-color:#F221DE"/>
			<stop  offset="1" style="stop-color:#12C8EF"/>
		</linearGradient>
		<path id="A" style="fill-rule:evenodd;clip-rule:evenodd;fill:url(#A_00000152247242365409128770000011670763162439427257_);" d="
			M253.8,16.1h-27.1v79.2h17.6V78h24.2l10.2,17.3H300L253.8,16.1z M244.3,61.9V33.7l16,28.2H244.3z"/>
	</g>
	<g id="Shape">
		<path class="st0" d="M52.7,45.2l18.5,18.5L52.7,82.3L34.1,63.7L52.7,45.2z M77.1,34.2H62.3V49h14.8V34.2z M64.5,20.1v10.4h10.4
			V20.1H64.5z M80.7,7.7h-6.1v6.1h6.1V7.7z M91.6,10.8h4.2V6.6h-4.2V10.8z M85.3,0v3h3V0H85.3z M93.7,28.5h6.5V22h-6.5V28.5z
			 M91.9,34.2H79.6v12.4h12.4V34.2z M81.2,27.4h9v-9h-9V27.4z"/>
		<linearGradient id="SVGID_1_" gradientUnits="userSpaceOnUse" x1="52.6672" y1="13.2474" x2="52.6672" y2="114.4908">
			<stop  offset="0.2649" style="stop-color:#F221DE"/>
			<stop  offset="0.755" style="stop-color:#12C8EF"/>
		</linearGradient>
		<polygon class="st5" points="91.2,49.6 79.6,49.6 79.6,53.8 89.5,63.7 52.7,100.5 15.9,63.7 52.7,26.9 57.9,32.2 57.9,32.1 
			61.4,32.1 61.4,19.8 52.7,11.1 0,63.7 52.7,116.4 105.3,63.7 		"/>
	</g>
</g>
</svg>
