<?xml version="1.0" encoding="utf-8"?>
<!-- Generator: Adobe Illustrator 26.3.0, SVG Export Plug-In . SVG Version: 6.00 Build 0)  -->
<svg version="1.1" id="Layer_1" xmlns="http://www.w3.org/2000/svg" xmlns:xlink="http://www.w3.org/1999/xlink" x="0px" y="0px"
	 viewBox="0 0 100 100" style="enable-background:new 0 0 100 100;" xml:space="preserve">
<style type="text/css">
	.st0{fill:#FFFFFF;}
</style>
<g>
	<path class="st0" d="M81.8,0c1.7,1.2,1.8,2.1,0.5,3.7c-2.1,2.7-4.3,5.3-6.4,8c2.1,2.7,4.3,5.3,6.4,8c0.2,0.2,0.4,0.5,0.5,0.7
		c0.8,1.4,0.1,2.9-1.6,3c-0.3,0-0.6,0-0.9,0c-9,0-18.1,0-27.1,0c-0.4,0-0.8,0-1.3,0c0,0.4,0,0.7,0,1c0,7.2,0,14.3,0,21.5
		c0,0.4,0.1,0.9,0.3,1.3c3.9,6.4,7.8,12.7,11.8,19.1c0.1,0.1,0.1,0.2,0.3,0.4c0.2-0.3,0.4-0.6,0.6-0.9c2.2-3.6,4.4-7.2,6.6-10.8
		c1.1-1.8,2.8-1.9,3.9,0c8.1,13.9,16.1,27.9,24.2,41.8c0.1,0.2,0.3,0.5,0.5,0.7c0,0.8,0,1.7,0,2.5c-33.3,0-66.7,0-100,0
		c0-0.8,0-1.7,0-2.5C4.2,90.3,8.3,83.1,12.5,76c4-6.9,8-13.8,12-20.7c1.3-2.3,2.8-2.3,4.3,0c2.1,3.5,4.3,7,6.4,10.5
		c0.2,0.3,0.3,0.5,0.6,0.9c0.2-0.4,0.4-0.6,0.6-0.9c3.8-6.1,7.5-12.2,11.2-18.3c0.3-0.5,0.4-1.1,0.4-1.6c0-14.3,0-28.7,0-43
		c0-1.2,0.3-2.2,1.4-2.8C60.2,0,71,0,81.8,0z M77.7,96C68.5,81,59.3,66.1,50,51C40.7,66.1,31.5,81,22.3,96C40.8,96,59.2,96,77.7,96z
		 M26.6,59.4C19.5,71.6,12.5,83.8,5.3,96.1c4.1,0,8,0,12,0c0.2,0,0.5-0.3,0.6-0.5c5.1-8.2,10.1-16.4,15.2-24.7
		c0.1-0.2,0.2-0.7,0-0.9C31,66.5,28.9,63,26.6,59.4z M73.4,59.4C71.1,63,69,66.5,66.8,70c-0.1,0.2,0,0.8,0.2,1.1
		c5,8.1,9.9,16.2,14.9,24.3c0.3,0.6,0.7,0.7,1.3,0.7c3.2,0,6.4,0,9.7,0c0.5,0,1.1,0,1.8,0C87.5,83.8,80.5,71.6,73.4,59.4z M77.1,4
		C68.6,4,60.3,4,52,4c0,5.2,0,10.4,0,15.5c8.4,0,16.7,0,25.1,0c-1.6-2.1-3.2-4-4.8-6c-1.1-1.4-1.1-2.1,0-3.5C73.9,8,75.5,6,77.1,4z"
		/>
	<path class="st0" d="M69.4,90.4c-0.5,0.5-0.8,1.1-1.4,1.5c-0.7,0.5-1.4,0.3-2.1-0.3c-0.3-0.2-0.5-0.5-0.7-0.8
		c-4.1-6.7-8.2-13.3-12.3-20c-0.2-0.4-0.4-0.9-0.5-1.3c-0.1-0.8,0.3-1.5,1-1.8c0.8-0.4,1.5-0.3,2.2,0.3c0.3,0.3,0.5,0.6,0.7,0.9
		c4.1,6.6,8.1,13.2,12.2,19.8C68.9,89.1,69.1,89.7,69.4,90.4z"/>
	<path class="st0" d="M51.9,62.9c0,1-0.9,1.9-2,1.9c-1,0-1.9-0.9-1.9-2c0-1,0.9-1.9,2-1.9C51.1,61,52,61.9,51.9,62.9z"/>
</g>
</svg>
