<?xml version="1.0" encoding="utf-8"?>
<!-- Generator: Adobe Illustrator 26.3.0, SVG Export Plug-In . SVG Version: 6.00 Build 0)  -->
<svg version="1.1" id="Layer_1" xmlns="http://www.w3.org/2000/svg" xmlns:xlink="http://www.w3.org/1999/xlink" x="0px" y="0px"
	 viewBox="0 0 60 60" style="enable-background:new 0 0 60 60;" xml:space="preserve">
<style type="text/css">
	.st0{fill:#FFFFFF;}
</style>
<g>
	<path class="st0" d="M0,30.9c0-0.6,0-1.2,0-1.9c0,0,0.1-0.1,0.1-0.1c0.5-3.3,3.4-6,7.4-6c4.9,0.1,9.8,0,14.8,0c0.2,0,0.5,0,0.7,0
		c0-0.3,0-0.5,0-0.8c0-5.1,0-10.1,0-15.2c0-2.3,1-4.2,2.8-5.6c1-0.7,2.1-1.1,3.2-1.4c0.6,0,1.2,0,1.9,0c0,0,0.1,0.1,0.1,0.1
		c3.1,0.4,6,3.3,6,7.4c-0.1,4.9,0,9.8,0,14.8c0,0.2,0,0.5,0,0.7c0.3,0,0.5,0,0.8,0c5,0,10.1,0,15.1,0c2.5,0,4.5,1,5.8,3.1
		c0.6,0.9,0.9,2,1.3,3c0,0.6,0,1.2,0,1.9c0,0-0.1,0.1-0.1,0.1c-0.4,3.1-3.3,6-7.4,6c-4.9-0.1-9.8,0-14.8,0c-0.2,0-0.5,0-0.7,0
		c0,0.3,0,0.5,0,0.8c0,5.1,0,10.1,0,15.2c0,2.7-1.3,4.8-3.7,6.2c-0.7,0.4-1.6,0.6-2.4,0.9c-0.6,0-1.2,0-1.9,0c0,0-0.1-0.1-0.1-0.1
		c-3.3-0.5-6-3.4-6-7.4c0.1-4.9,0-9.8,0-14.8c0-0.2,0-0.5,0-0.7c-0.3,0-0.5,0-0.8,0c-5,0-10.1,0-15.1,0c-2.5,0-4.5-1-5.8-3.1
		C0.7,33.1,0.4,32,0,30.9z M44.2,33.5c2.9,0,5.9,0,8.8,0c2.1,0,3.6-1.7,3.5-3.7c-0.1-1.9-1.6-3.3-3.6-3.3c-5.8,0-11.6,0-17.4,0
		c-0.7,0-1.3-0.2-1.6-0.8c-0.2-0.4-0.3-0.8-0.3-1.3c0-5.7,0-11.5,0-17.2c0-1.5-0.6-2.6-1.9-3.3c-2.3-1.3-5.1,0.4-5.1,3.1
		c0,5.8,0,11.6,0,17.4c0,1.3-0.7,2-2,2c-3.1,0-6.2,0-9.3,0c-2.7,0-5.5,0-8.2,0c-2,0-3.6,1.7-3.5,3.7c0.1,1.9,1.6,3.3,3.6,3.3
		c5.8,0,11.6,0,17.4,0c1.2,0,1.9,0.7,1.9,1.9c0,0.6,0,1.2,0,1.9c0,5.2,0,10.4,0,15.6c0,2.1,1.7,3.7,3.7,3.6c1.9-0.1,3.3-1.6,3.3-3.6
		c0-5.8,0-11.5,0-17.3c0-1.4,0.7-2,2.1-2C38.4,33.5,41.3,33.5,44.2,33.5z"/>
</g>
</svg>
