<?xml version="1.0" encoding="utf-8"?>
<!-- Generator: Adobe Illustrator 26.3.0, SVG Export Plug-In . SVG Version: 6.00 Build 0)  -->
<svg version="1.1" id="Layer_1" xmlns="http://www.w3.org/2000/svg" xmlns:xlink="http://www.w3.org/1999/xlink" x="0px" y="0px"
	 viewBox="0 0 100 100" style="enable-background:new 0 0 100 100;" xml:space="preserve">
<style type="text/css">
	.st0{fill:#FFFFFF;}
</style>
<g>
	<path class="st0" d="M0,47.3c0.3-1,0.4-2,0.8-3C2,41.5,4.3,39.9,7,40c2.8,0.1,5.6,2,6.4,4.7c0.7,2.3,1,4.7,1.5,7
		c1,5.1,2,10.3,3,15.4c0,0.2,0.1,0.4,0.2,0.7c1.9-0.2,3.5,0.6,4.9,1.7c3.7,2.6,7.3,5.2,11,7.7c1.9,1.3,2.7,3,2.7,5.2
		c0,5,0,10.1,0,15.1c0,1-0.3,1.8-1.2,2.4c-5.9,0-11.8,0-17.8,0c-1.1-0.7-1.2-1.7-1.1-2.8c0.1-0.7-0.2-1.2-0.8-1.6
		c-3.1-2-6.3-4-9.4-6c-2.4-1.5-4.2-3.6-5.2-6.2c-0.5-1.3-0.8-2.6-1.2-4C0,68.8,0,58,0,47.3z M29.3,83.7c-0.7,0.9-1.3,1.8-2,2.7
		c-4-2.9-7.9-5.7-11.8-8.6c-2.5-1.9-3-5.2-1.1-7.8c0.2-0.3,0.3-0.9,0.3-1.3c-1.4-7.3-2.8-14.6-4.2-21.9c-0.2-1.1-0.8-2.1-1.8-2.7
		C6.9,42.8,5,43.2,4,45.2c-0.4,0.9-0.7,2-0.7,3c-0.1,10-0.1,20,0,30c0,3.7,1.7,6.6,4.8,8.7c3.2,2.1,6.4,4.1,9.6,6.1
		c1.4,0.8,2.4,1.7,2.2,3.5c0,0,0.1,0.1,0.1,0.1c4.4,0,8.8,0,13.1,0c0-0.2,0.1-0.3,0.1-0.4c0-4.7,0-9.4,0-14.2c0-0.8-0.3-1.4-1-1.9
		c-2.3-1.6-4.5-3.2-6.8-4.8c-1.8-1.3-3.6-2.6-5.4-3.8c-1.2-0.8-2.4-0.5-3.1,0.5c-0.7,1-0.5,2.2,0.7,3c0.8,0.6,1.6,1.2,2.4,1.8
		C23.2,79.2,26.2,81.4,29.3,83.7z"/>
	<path class="st0" d="M64.5,100c-0.9-0.6-1.2-1.4-1.2-2.5c0-5,0-10,0-14.9c0-2.3,0.8-4,2.7-5.3c3.9-2.7,7.7-5.4,11.6-8.1
		c1.3-0.9,2.7-1.4,4.4-1.3c0.3-1.3,0.5-2.6,0.8-3.9c1.2-6.1,2.3-12.3,3.5-18.4c0.6-3,3.6-5.5,6.7-5.6c3-0.1,5.7,2,6.5,5.3
		c0.2,0.7,0.3,1.3,0.4,2c0,10.7,0,21.5,0,32.2c-0.1,0.1-0.2,0.3-0.2,0.4c-0.7,4.3-2.8,7.6-6.5,9.9c-3,1.9-6.1,3.9-9.1,5.8
		c-0.6,0.4-0.9,0.8-0.8,1.6c0.1,1.1-0.1,2.1-1.1,2.8C76.3,100,70.4,100,64.5,100z M79.9,96.6c0.3-2.4,0.3-2.4,2.4-3.7
		c3.1-2,6.1-3.9,9.2-5.9c3.4-2.2,5.2-5.3,5.2-9.4c0-9.8,0-19.5,0-29.3c0-1-0.2-2-0.5-2.9c-0.9-2.4-3.3-2.8-5.2-1.1
		c-1,0.9-1.2,2-1.5,3.3c-1.3,7.1-2.7,14.1-4.1,21.2c-0.1,0.4,0,0.8,0.2,1.1c1.9,2.6,1.5,5.7-0.9,7.7c-1.9,1.6-3.8,3.2-5.7,4.8
		c-1.5,1.2-2.9,2.5-4.5,3.7c-0.7-0.9-1.4-1.7-2.1-2.5c0.3-0.2,0.4-0.4,0.6-0.6c3.2-2.7,6.4-5.4,9.5-8.1c1.3-1.1,1.2-2.8-0.1-3.6
		c-1-0.6-1.9-0.3-2.7,0.3c-4,2.8-7.9,5.6-11.9,8.4c-0.8,0.5-1.1,1.2-1.1,2.1c0,4.5,0,9,0,13.6c0,0.2,0.1,0.5,0.1,0.8
		C71.2,96.6,75.5,96.6,79.9,96.6z"/>
	<path class="st0" d="M50.4,0c0.9,0.4,1.2,1.1,1.3,2.1c0.3,2.6,2,4.3,4.6,4.6c1.2,0.1,1.9,0.7,1.9,1.7c0,0.9-0.6,1.5-1.9,1.7
		c-2.9,0.4-4.4,1.9-4.7,4.7c0,0.3-0.1,0.5-0.1,0.8c-0.3,0.8-0.8,1.2-1.6,1.2c-0.8,0-1.3-0.4-1.5-1.2c-0.1-0.5-0.1-1.1-0.3-1.6
		c-0.6-2.1-1.9-3.4-4.1-3.7c-0.4-0.1-0.7-0.1-1.1-0.2c-0.8-0.2-1.3-0.7-1.4-1.6c0-0.8,0.4-1.4,1.2-1.6c0.3-0.1,0.6-0.1,0.9-0.2
		c2.5-0.3,4.3-2,4.5-4.5c0.1-1,0.4-1.8,1.3-2.2C49.9,0,50.1,0,50.4,0z M48.5,8.4c0.5,0.4,1,0.9,1.4,1.3c0.5-0.4,1-0.9,1.5-1.3
		c-0.5-0.5-1-1.1-1.5-1.6C49.5,7.3,49,7.8,48.5,8.4z"/>
	<path class="st0" d="M50,25c14.7,0,26.6,12,26.6,26.7c0,14.7-12.1,26.7-26.7,26.7c-14.7-0.1-26.7-12.2-26.6-26.7
		C23.5,36.8,35.4,25,50,25z M73.3,51.7c0-12.8-10.4-23.3-23.2-23.3c-12.8-0.1-23.3,10.4-23.4,23.3c0,12.8,10.4,23.3,23.2,23.3
		C62.8,75.1,73.3,64.6,73.3,51.7z"/>
	<path class="st0" d="M30,28.3c-0.9,0-1.5-0.7-1.6-1.9c-0.2-2.4-1.8-4.2-4.1-4.6c-0.3-0.1-0.7-0.1-1.1-0.1c-0.9-0.2-1.5-0.8-1.5-1.7
		c0-0.8,0.6-1.4,1.5-1.6c1-0.2,2-0.4,2.8-0.9c1.4-0.8,2.1-2.2,2.3-3.9c0.1-1.2,0.6-1.8,1.5-1.9c1-0.1,1.7,0.5,1.9,1.8
		c0.2,2,1.1,3.5,2.9,4.3c0.6,0.3,1.4,0.4,2.1,0.5c1.1,0.2,1.7,0.7,1.7,1.6c0,1-0.6,1.6-1.8,1.7c-3,0.3-4.5,1.9-4.9,4.9
		C31.5,27.7,30.9,28.3,30,28.3z M30.1,18.6c-0.6,0.5-1.2,0.9-1.6,1.3c0.5,0.6,1,1.1,1.5,1.5c0.5-0.5,1-1,1.5-1.5
		C31,19.5,30.5,19,30.1,18.6z"/>
	<path class="st0" d="M70,28.3c-0.8,0-1.5-0.6-1.7-1.5c-0.1-0.6-0.1-1.2-0.4-1.8c-0.7-2-2.2-3.1-4.3-3.3c-1.4-0.2-2-0.7-2-1.7
		c0-1,0.6-1.6,1.9-1.7c2.7-0.3,4.3-2,4.7-4.7c0-0.1,0-0.2,0-0.3c0.1-1.1,0.8-1.7,1.7-1.7c0.9,0,1.5,0.6,1.6,1.6
		c0.5,3.3,1.7,4.5,5.1,5c1,0.1,1.6,0.8,1.6,1.7c0,0.9-0.6,1.5-1.6,1.7c-3.3,0.5-4.5,1.7-5,5C71.5,27.7,70.9,28.3,70,28.3z
		 M70.1,18.5c-0.6,0.5-1.2,1-1.7,1.4c0.5,0.6,1,1.1,1.4,1.5c0.6-0.5,1.1-1,1.7-1.5c-0.3-0.2-0.5-0.5-0.8-0.7
		C70.5,19,70.3,18.7,70.1,18.5z"/>
	<path class="st0" d="M36.6,50c-1,0-2,0-3.1,0C32.9,41.5,40.8,33,50,33.5c0,1,0,2.1,0,3.1C41.9,37.4,37.5,41.8,36.6,50z"/>
</g>
</svg>
