<?xml version="1.0" encoding="utf-8"?>
<!-- Generator: Adobe Illustrator 26.3.0, SVG Export Plug-In . SVG Version: 6.00 Build 0)  -->
<svg version="1.1" id="Layer_1" xmlns="http://www.w3.org/2000/svg" xmlns:xlink="http://www.w3.org/1999/xlink" x="0px" y="0px"
	 viewBox="0 0 100 100" style="enable-background:new 0 0 100 100;" xml:space="preserve">
<style type="text/css">
	.st0{fill:#FFFFFF;}
</style>
<g>
	<path class="st0" d="M42.8,72.1c-7.3-5.3-7.2-14.6-2.1-19.8c5-5.2,13.4-5.2,18.4,0c5.1,5.2,5.3,14.5-1.9,19.8
		c1.6,0.8,3.3,1.5,4.8,2.5c6.8,4.5,10.3,10.8,10.5,18.9c0.1,2.1,0,4.3,0,6.5c-15.1,0-30,0-45,0c0,0-0.1-0.1-0.1-0.1
		c0-4.5-0.4-9,1.1-13.4c2.3-6.6,6.7-11.3,13.2-13.9C42.1,72.4,42.5,72.3,42.8,72.1z M50,51.6c-5.3,0-9.7,4.4-9.7,9.7
		c0,5.3,4.4,9.7,9.7,9.7c5.3,0,9.7-4.4,9.7-9.7C59.7,56,55.3,51.6,50,51.6z M44,75.2c2,6,3.9,11.9,5.9,17.7c0.1,0,0.2,0,0.2,0
		C52.1,87,54,81.1,56,75.2C51.9,73.9,48.1,73.9,44,75.2z M60.5,87.5c1.1,1,2.1,1.9,3.2,2.9c-2.2,2.1-4.3,4.2-6.5,6.3
		c4.2,0,8.1,0,12.1,0c0.4-5.6-0.6-10.8-4.3-15.3c-0.2,0.9-0.4,1.6-0.4,2.4c-0.1,0.8-0.4,1.3-1.1,1.7C62.5,86,61.6,86.7,60.5,87.5z
		 M34.9,81.5c-3.7,4.6-4.7,9.7-4.2,15.3c4,0,8,0,12.1,0c-2.2-2.2-4.3-4.3-6.5-6.4c1.1-1,2.1-1.9,3.1-2.9c-0.5-0.3-0.7-0.6-1.1-0.7
		c-2.1-1-3.4-2.5-3.3-4.9C35.1,81.7,35,81.7,34.9,81.5z M58.9,76.5c-1.1,3.4-2.2,6.8-3.4,10.4c2-1.4,3.8-2.5,5.6-3.7
		c0.1-0.1,0.3-0.2,0.3-0.4c0.2-1.4,0.5-2.8,0.7-4.2C61.1,77.9,60.1,77.2,58.9,76.5z M41,76.5c-0.4,0.2-0.8,0.4-1.1,0.6
		c-2.2,1.3-2.2,1.3-1.7,3.9c0.1,0.5,0.2,1,0.3,1.5c0,0.2,0.1,0.5,0.3,0.6c1.8,1.2,3.6,2.5,5.7,3.8C43.3,83.2,42.2,79.9,41,76.5z
		 M47.7,96.7c-1.1-3.2-2.1-6.5-3.2-9.6c-1.1,1.2-2.3,2.3-3.2,3.2C43.4,92.4,45.6,94.5,47.7,96.7z M52.3,96.7
		c2.2-2.2,4.4-4.4,6.5-6.4c-1-1-2.1-2.1-3.2-3.3C54.4,90.2,53.3,93.5,52.3,96.7z"/>
	<path class="st0" d="M30.5,27.7c-1.9,1.8-3.6,3.6-5.4,5.4c4.8,4.7,9.5,9.2,14.1,13.6c-4,4-7.9,7.9-11.9,11.9
		C23,54,18.4,49.3,13.8,44.4C12,46.3,10.2,48,8.3,50c-1.9-9.4-3.7-18.5-5.6-27.9C12.1,24,21.2,25.8,30.5,27.7z M6.9,26.3
		c1.2,5.8,2.3,11.4,3.4,17.2c1.2-1.3,2.3-2.4,3.5-3.6c4.7,4.8,9.2,9.5,13.7,14.2c2.4-2.4,4.8-4.8,7.2-7.2
		c-4.7-4.5-9.4-9.1-14.3-13.8c1.2-1.2,2.4-2.3,3.5-3.4C18.3,28.5,12.7,27.4,6.9,26.3z"/>
	<path class="st0" d="M60.7,46.8c4.7-4.5,9.3-9,14.1-13.6c-1.8-1.8-3.6-3.5-5.6-5.5c9.5-1.9,18.6-3.7,27.9-5.6
		c-1.9,9.3-3.7,18.4-5.5,27.6c-1.8-1.8-3.5-3.6-5.3-5.5c-4.7,4.9-9.3,9.6-13.8,14.3C68.6,54.7,64.7,50.8,60.7,46.8z M79.5,33.2
		c-4.8,4.7-9.5,9.2-14.2,13.7c2.4,2.4,4.8,4.8,7.2,7.2c4.5-4.6,9-9.4,13.7-14.3c1.1,1.2,2.2,2.4,3.4,3.7c1.2-5.8,2.3-11.4,3.4-17.2
		c-5.8,1.2-11.4,2.3-17.1,3.4C77.2,30.9,78.3,32,79.5,33.2z"/>
	<path class="st0" d="M42,45.1c0-6.4,0-12.8,0-19.3c-2.6,0-5.1,0-7.9,0c5.4-8,10.6-15.9,15.9-23.9c5.3,8,10.6,15.8,15.9,23.9
		c-2.7,0-5.2,0-7.8,0c0,6.5,0,12.9,0,19.3C52.7,45.1,47.4,45.1,42,45.1z M59.9,22.6c-3.4-5.1-6.6-9.9-9.9-14.9
		c-3.3,5-6.6,9.9-9.9,14.9c1.8,0,3.4,0,5.1,0c0,6.5,0,12.9,0,19.3c3.2,0,6.4,0,9.6,0c0-6.4,0-12.8,0-19.3
		C56.5,22.6,58.1,22.6,59.9,22.6z"/>
	<path class="st0" d="M4.9,0c2.7,0,4.8,2.2,4.8,4.9c0,2.6-2.2,4.8-4.9,4.7C2.1,9.7,0,7.4,0,4.7C0,2.1,2.2,0,4.9,0z M6.4,4.8
		c0-0.9-0.8-1.6-1.6-1.6C3.9,3.3,3.2,4,3.2,4.9c0,0.9,0.8,1.6,1.6,1.6C5.7,6.4,6.5,5.7,6.4,4.8z"/>
	<path class="st0" d="M95.1,9.7c-2.7,0-4.8-2.2-4.8-4.9c0-2.6,2.2-4.8,4.9-4.8c2.7,0,4.8,2.2,4.8,4.9C100,7.5,97.8,9.7,95.1,9.7z
		 M96.8,4.8c0-0.9-0.7-1.6-1.6-1.6c-0.9,0-1.6,0.7-1.6,1.6c0,0.9,0.7,1.6,1.6,1.6C96,6.4,96.8,5.7,96.8,4.8z"/>
	<path class="st0" d="M9.7,64.6c0,2.6-2.2,4.8-4.8,4.8c-2.7,0-4.9-2.2-4.9-4.9c0-2.7,2.2-4.8,4.9-4.8C7.5,59.7,9.7,61.9,9.7,64.6z
		 M4.8,66.1c0.9,0,1.6-0.7,1.6-1.6c0-0.9-0.7-1.6-1.6-1.6c-0.9,0-1.6,0.7-1.6,1.6C3.2,65.4,4,66.1,4.8,66.1z"/>
	<path class="st0" d="M95.2,69.4c-2.7,0-4.9-2.2-4.9-4.8c0-2.6,2.2-4.8,4.8-4.8c2.7,0,4.9,2.2,4.9,4.8C100,67.2,97.8,69.3,95.2,69.4
		z M96.8,64.5c0-0.9-0.7-1.6-1.6-1.6c-0.9,0-1.6,0.7-1.6,1.6c0,0.9,0.7,1.6,1.6,1.6C96,66.1,96.8,65.4,96.8,64.5z"/>
	<path class="st0" d="M9.7,95.2c0,2.6-2.2,4.8-4.8,4.8C2.2,100,0,97.8,0,95.2c0-2.7,2.2-4.8,4.9-4.8C7.5,90.4,9.7,92.6,9.7,95.2z
		 M4.9,96.8c0.9,0,1.6-0.8,1.6-1.6c0-0.9-0.7-1.6-1.6-1.6c-0.9,0-1.6,0.7-1.6,1.6C3.2,96.1,4,96.8,4.9,96.8z"/>
	<path class="st0" d="M100,95.2c0,2.7-2.2,4.9-4.9,4.9c-2.6,0-4.8-2.2-4.8-4.8c0-2.7,2.2-4.9,4.9-4.9C97.8,90.4,100,92.5,100,95.2z
		 M95.2,96.8c0.9,0,1.6-0.8,1.6-1.6c0-0.9-0.8-1.6-1.6-1.6c-0.9,0-1.6,0.8-1.6,1.6C93.6,96.1,94.3,96.8,95.2,96.8z"/>
	<path class="st0" d="M12.8,11c-0.6,0.5-1.3,1.3-2,1.9c-0.7-0.7-1.4-1.4-2.2-2.2c0.7-0.7,1.4-1.4,2.2-2.1
		C11.4,9.4,12.1,10.2,12.8,11z"/>
	<path class="st0" d="M8.6,89.2c0.7-0.7,1.5-1.4,2.3-2.1c0.7,0.7,1.4,1.4,2.2,2.1c-0.8,0.7-1.5,1.4-2.3,2.1
		C10.1,90.7,9.4,89.9,8.6,89.2z"/>
	<path class="st0" d="M29,66.1c-1,0-2,0-3.1,0c0-1,0-2,0-3.1c1,0,2,0,3.1,0C29,64,29,65,29,66.1z"/>
	<path class="st0" d="M74.1,66.1c-1.1,0-2,0-3.1,0c0-1,0-2,0-3.1c1,0,2,0,3.1,0C74.1,64,74.1,65,74.1,66.1z"/>
	<path class="st0" d="M77.5,63c1,0,2,0,3.1,0c0,1,0,2,0,3.1c-1,0-2,0-3.1,0C77.5,65.1,77.5,64.1,77.5,63z"/>
	<path class="st0" d="M87.1,63c0,1.1,0,2,0,3.1c-1,0-2.1,0-3.1,0c0-1,0-2,0-3.1C85,63,86,63,87.1,63z"/>
	<path class="st0" d="M13,63c1.1,0,2.1,0,3.1,0c0,1,0,2,0,3.1c-1,0-2,0-3.1,0C13,65.1,13,64.1,13,63z"/>
	<path class="st0" d="M22.5,63c0,1,0,2,0,3.1c-1,0-2,0-3.1,0c0-1,0-2,0-3.1C20.4,63,21.4,63,22.5,63z"/>
	<path class="st0" d="M15.3,17.5c-0.6-0.7-1.3-1.4-2-2.2c0.7-0.6,1.4-1.3,2.2-2c0.7,0.7,1.4,1.4,2.1,2.1
		C16.8,16.1,16.1,16.8,15.3,17.5z"/>
	<path class="st0" d="M15.3,86.8c-0.7-0.7-1.4-1.5-2.1-2.2c0.7-0.7,1.4-1.4,2.2-2.2c0.7,0.7,1.4,1.4,2.1,2.2
		C16.8,85.4,16.1,86.1,15.3,86.8z"/>
	<path class="st0" d="M82.4,84.7c0.8-0.8,1.4-1.5,2.1-2.2c0.7,0.8,1.4,1.5,2.1,2.3c-0.6,0.6-1.3,1.3-2,2
		C83.9,86,83.2,85.3,82.4,84.7z"/>
	<path class="st0" d="M91.4,10.9c-0.7,0.7-1.5,1.4-2.2,2.1c-0.7-0.7-1.4-1.4-2.1-2.2c0.7-0.7,1.4-1.4,2.2-2.2
		C89.9,9.4,90.6,10.1,91.4,10.9z"/>
	<path class="st0" d="M86.8,15.4c-0.7,0.7-1.4,1.5-2.1,2.2c-0.7-0.7-1.4-1.5-2.1-2.3c0.7-0.7,1.4-1.4,2.2-2.1
		C85.3,13.9,86.1,14.6,86.8,15.4z"/>
	<path class="st0" d="M87,89.1c0.7-0.6,1.4-1.4,2.2-2.1c0.7,0.7,1.4,1.4,2.2,2.2c-0.7,0.7-1.5,1.4-2.3,2.1
		C88.4,90.7,87.7,89.9,87,89.1z"/>
	<path class="st0" d="M80.1,22c-0.7-0.7-1.4-1.4-2.2-2.2c0.8-0.6,1.5-1.3,2.3-1.9c0.5,0.6,1.2,1.4,2,2.2
		C81.6,20.6,80.9,21.3,80.1,22z"/>
	<path class="st0" d="M82.1,80.2c-0.6,0.6-1.3,1.3-2.1,2c-0.6-0.7-1.3-1.4-2-2.1c0.7-0.6,1.4-1.3,2.3-2
		C80.8,78.7,81.4,79.4,82.1,80.2z"/>
	<path class="st0" d="M20,17.9c0.6,0.6,1.3,1.3,2,2c-0.8,0.7-1.5,1.4-2.3,2.1c-0.5-0.6-1.2-1.3-1.8-1.9C18.5,19.3,19.3,18.6,20,17.9
		z"/>
	<path class="st0" d="M22.1,80.4c-0.5,0.4-1,0.8-1.5,1.3c-0.2,0.2-0.4,0.4-0.6,0.5c-0.7-0.8-1.4-1.5-2.1-2.1c0.6-0.6,1.3-1.3,2-2.1
		C20.5,78.7,21.2,79.5,22.1,80.4z"/>
</g>
</svg>
