<?xml version="1.0" encoding="utf-8"?>
<!-- Generator: Adobe Illustrator 26.3.0, SVG Export Plug-In . SVG Version: 6.00 Build 0)  -->
<svg version="1.1" id="Isolation_Mode" xmlns="http://www.w3.org/2000/svg" xmlns:xlink="http://www.w3.org/1999/xlink" x="0px"
	 y="0px" viewBox="0 0 172 177.2" style="enable-background:new 0 0 172 177.2;" xml:space="preserve">
<style type="text/css">
	.st0{opacity:0.5;}
	.st1{fill:#004AF9;}
</style>
<g>
	<g class="st0">
		<path class="st1" d="M42.3,16.9c0-5.8,0.3-11.3,1.2-16.9H0.9C0.3,5.5,0,11,0,16.9c0,88.6,71.7,160.3,160.3,160.3
			c4,0,7.7,0,11.7-0.3v-42.6c-3.7,0.3-7.7,0.6-11.7,0.6C95.4,134.9,42.3,81.9,42.3,16.9z"/>
		<g>
			<path class="st1" d="M1.8,16.9C1.8,11.3,2.1,5.5,2.8,0H0.9C0.3,5.5,0,11,0,16.9c0,88.6,71.7,160.3,160.3,160.3
				c4,0,7.7,0,11.7-0.3v-1.8c-3.7,0.3-7.7,0.3-11.7,0.3C73,175.4,1.8,104.2,1.8,16.9z"/>
		</g>
	</g>
</g>
</svg>
