<svg 
 xmlns="http://www.w3.org/2000/svg"
 xmlns:xlink="http://www.w3.org/1999/xlink"
 width="406px" height="25px">
<path fill-rule="evenodd"  fill="rgb(38, 37, 34)"
 d="M399.861,24.500 L399.861,15.470 C399.861,14.510 399.610,13.755 399.111,13.205 C398.610,12.655 397.941,12.380 397.101,12.380 C396.220,12.380 395.530,12.655 395.031,13.205 C394.530,13.755 394.281,14.510 394.281,15.470 L394.281,24.500 L388.401,24.500 L388.401,7.670 L394.281,7.670 L394.281,10.070 C394.800,9.310 395.500,8.695 396.381,8.225 C397.261,7.755 398.271,7.520 399.411,7.520 C401.350,7.520 402.891,8.165 404.031,9.455 C405.171,10.745 405.741,12.490 405.741,14.690 L405.741,24.500 L399.861,24.500 ZM380.781,23.660 C379.441,24.360 377.931,24.710 376.251,24.710 C374.571,24.710 373.066,24.360 371.736,23.660 C370.406,22.960 369.361,21.960 368.601,20.660 C367.841,19.360 367.461,17.830 367.461,16.070 C367.461,14.330 367.846,12.810 368.616,11.510 C369.386,10.210 370.436,9.210 371.766,8.510 C373.096,7.810 374.601,7.460 376.281,7.460 C377.961,7.460 379.466,7.810 380.796,8.510 C382.126,9.210 383.176,10.210 383.946,11.510 C384.716,12.810 385.101,14.330 385.101,16.070 C385.101,17.810 384.716,19.335 383.946,20.645 C383.176,21.955 382.121,22.960 380.781,23.660 ZM378.306,13.460 C377.756,12.860 377.081,12.560 376.281,12.560 C375.481,12.560 374.811,12.860 374.271,13.460 C373.731,14.060 373.461,14.930 373.461,16.070 C373.461,17.230 373.721,18.110 374.241,18.710 C374.761,19.310 375.431,19.610 376.251,19.610 C377.071,19.610 377.756,19.305 378.306,18.695 C378.856,18.085 379.131,17.210 379.131,16.070 C379.131,14.930 378.856,14.060 378.306,13.460 ZM361.251,6.110 C360.211,6.110 359.376,5.825 358.746,5.255 C358.116,4.685 357.801,3.970 357.801,3.110 C357.801,2.230 358.116,1.500 358.746,0.920 C359.376,0.340 360.211,0.050 361.251,0.050 C362.271,0.050 363.096,0.340 363.726,0.920 C364.356,1.500 364.671,2.230 364.671,3.110 C364.671,3.970 364.356,4.685 363.726,5.255 C363.096,5.825 362.271,6.110 361.251,6.110 ZM345.681,18.110 L345.681,12.560 L343.611,12.560 L343.611,7.670 L345.681,7.670 L345.681,3.590 L351.591,3.590 L351.591,7.670 L354.651,7.670 L354.651,12.560 L351.591,12.560 L351.591,18.200 C351.591,18.660 351.696,18.990 351.906,19.190 C352.116,19.390 352.471,19.490 352.971,19.490 L354.681,19.490 L354.681,24.500 L352.131,24.500 C347.831,24.500 345.681,22.370 345.681,18.110 ZM333.082,19.700 C334.141,19.700 334.841,19.150 335.182,18.050 L341.422,18.050 C341.002,20.130 340.061,21.760 338.602,22.940 C337.141,24.120 335.341,24.710 333.202,24.710 C331.541,24.710 330.067,24.360 328.777,23.660 C327.487,22.960 326.482,21.960 325.762,20.660 C325.042,19.360 324.682,17.830 324.682,16.070 C324.682,14.330 325.042,12.810 325.762,11.510 C326.482,10.210 327.487,9.210 328.777,8.510 C330.067,7.810 331.541,7.460 333.202,7.460 C335.341,7.460 337.141,8.045 338.602,9.215 C340.061,10.385 341.002,12.020 341.422,14.120 L335.182,14.120 C334.822,13.020 334.121,12.470 333.082,12.470 C332.341,12.470 331.756,12.775 331.327,13.385 C330.896,13.995 330.682,14.890 330.682,16.070 C330.682,17.250 330.896,18.150 331.327,18.770 C331.756,19.390 332.341,19.700 333.082,19.700 ZM315.472,22.100 C314.972,22.860 314.282,23.475 313.402,23.945 C312.522,24.415 311.512,24.650 310.372,24.650 C308.412,24.650 306.867,24.005 305.737,22.715 C304.607,21.425 304.042,19.670 304.042,17.450 L304.042,7.670 L309.892,7.670 L309.892,16.700 C309.892,17.660 310.147,18.415 310.657,18.965 C311.167,19.515 311.842,19.790 312.682,19.790 C313.542,19.790 314.222,19.515 314.722,18.965 C315.222,18.415 315.472,17.660 315.472,16.700 L315.472,7.670 L321.382,7.670 L321.382,24.500 L315.472,24.500 L315.472,22.100 ZM296.662,14.540 C296.042,15.040 295.732,15.910 295.732,17.150 L295.732,24.500 L289.852,24.500 L289.852,7.670 L295.732,7.670 L295.732,10.640 C296.392,9.680 297.192,8.920 298.132,8.360 C299.072,7.800 300.082,7.520 301.162,7.520 L301.162,13.790 L299.512,13.790 C298.232,13.790 297.282,14.040 296.662,14.540 ZM277.252,18.110 L277.252,12.560 L275.182,12.560 L275.182,7.670 L277.252,7.670 L277.252,3.590 L283.162,3.590 L283.162,7.670 L286.222,7.670 L286.222,12.560 L283.162,12.560 L283.162,18.200 C283.162,18.660 283.267,18.990 283.477,19.190 C283.687,19.390 284.042,19.490 284.542,19.490 L286.252,19.490 L286.252,24.500 L283.702,24.500 C279.402,24.500 277.252,22.370 277.252,18.110 ZM266.453,14.240 C267.672,14.500 268.688,14.790 269.498,15.110 C270.308,15.430 271.017,15.945 271.628,16.655 C272.237,17.365 272.543,18.330 272.543,19.550 C272.543,20.530 272.258,21.410 271.688,22.190 C271.118,22.970 270.308,23.585 269.258,24.035 C268.208,24.485 266.972,24.710 265.553,24.710 C264.032,24.710 262.677,24.455 261.488,23.945 C260.297,23.435 259.358,22.735 258.668,21.845 C257.978,20.955 257.592,19.950 257.513,18.830 L263.213,18.830 C263.292,19.370 263.543,19.790 263.963,20.090 C264.383,20.390 264.902,20.540 265.523,20.540 C266.003,20.540 266.382,20.440 266.663,20.240 C266.942,20.040 267.083,19.780 267.083,19.460 C267.083,19.040 266.852,18.730 266.393,18.530 C265.932,18.330 265.172,18.110 264.113,17.870 C262.913,17.630 261.912,17.360 261.113,17.060 C260.312,16.760 259.617,16.270 259.028,15.590 C258.437,14.910 258.143,13.990 258.143,12.830 C258.143,11.830 258.413,10.925 258.953,10.115 C259.493,9.305 260.288,8.660 261.338,8.180 C262.388,7.700 263.652,7.460 265.133,7.460 C267.333,7.460 269.063,8.000 270.323,9.080 C271.583,10.160 272.312,11.580 272.513,13.340 L267.203,13.340 C267.102,12.800 266.868,12.385 266.498,12.095 C266.127,11.805 265.632,11.660 265.013,11.660 C264.533,11.660 264.167,11.750 263.918,11.930 C263.667,12.110 263.543,12.360 263.543,12.680 C263.543,13.080 263.772,13.385 264.233,13.595 C264.692,13.805 265.433,14.020 266.453,14.240 ZM248.363,15.470 C248.363,14.510 248.113,13.755 247.613,13.205 C247.113,12.655 246.443,12.380 245.603,12.380 C244.723,12.380 244.033,12.655 243.533,13.205 C243.033,13.755 242.783,14.510 242.783,15.470 L242.783,24.500 L236.903,24.500 L236.903,7.670 L242.783,7.670 L242.783,10.070 C243.303,9.310 244.003,8.695 244.883,8.225 C245.763,7.755 246.773,7.520 247.913,7.520 C249.853,7.520 251.393,8.165 252.533,9.455 C253.673,10.745 254.243,12.490 254.243,14.690 L254.243,24.500 L248.363,24.500 L248.363,15.470 ZM229.283,23.660 C227.943,24.360 226.433,24.710 224.753,24.710 C223.073,24.710 221.568,24.360 220.238,23.660 C218.908,22.960 217.863,21.960 217.103,20.660 C216.343,19.360 215.963,17.830 215.963,16.070 C215.963,14.330 216.348,12.810 217.118,11.510 C217.888,10.210 218.938,9.210 220.268,8.510 C221.598,7.810 223.103,7.460 224.783,7.460 C226.463,7.460 227.968,7.810 229.298,8.510 C230.628,9.210 231.678,10.210 232.448,11.510 C233.218,12.810 233.603,14.330 233.603,16.070 C233.603,17.810 233.218,19.335 232.448,20.645 C231.678,21.955 230.623,22.960 229.283,23.660 ZM226.808,13.460 C226.258,12.860 225.583,12.560 224.783,12.560 C223.983,12.560 223.313,12.860 222.773,13.460 C222.233,14.060 221.963,14.930 221.963,16.070 C221.963,17.230 222.223,18.110 222.743,18.710 C223.263,19.310 223.933,19.610 224.753,19.610 C225.573,19.610 226.258,19.305 226.808,18.695 C227.358,18.085 227.633,17.210 227.633,16.070 C227.633,14.930 227.358,14.060 226.808,13.460 ZM203.004,19.250 C203.883,19.250 204.658,19.040 205.329,18.620 C205.998,18.200 206.523,17.590 206.904,16.790 L213.234,16.790 C212.713,19.210 211.554,21.125 209.754,22.535 C207.954,23.945 205.734,24.650 203.094,24.650 C201.013,24.650 199.173,24.195 197.574,23.285 C195.973,22.375 194.739,21.105 193.869,19.475 C192.999,17.845 192.564,15.980 192.564,13.880 C192.564,11.800 192.999,9.945 193.869,8.315 C194.739,6.685 195.973,5.415 197.574,4.505 C199.173,3.595 201.013,3.140 203.094,3.140 C205.734,3.140 207.954,3.845 209.754,5.255 C211.554,6.665 212.713,8.580 213.234,11.000 L206.904,11.000 C206.523,10.200 205.998,9.590 205.329,9.170 C204.658,8.750 203.883,8.540 203.004,8.540 C201.643,8.540 200.559,9.025 199.749,9.995 C198.939,10.965 198.534,12.260 198.534,13.880 C198.534,15.520 198.939,16.825 199.749,17.795 C200.559,18.765 201.643,19.250 203.004,19.250 ZM174.054,18.110 L174.054,12.560 L171.984,12.560 L171.984,7.670 L174.054,7.670 L174.054,3.590 L179.964,3.590 L179.964,7.670 L183.024,7.670 L183.024,12.560 L179.964,12.560 L179.964,18.200 C179.964,18.660 180.069,18.990 180.279,19.190 C180.489,19.390 180.844,19.490 181.344,19.490 L183.054,19.490 L183.054,24.500 L180.504,24.500 C176.204,24.500 174.054,22.370 174.054,18.110 ZM165.624,14.540 C165.004,15.040 164.694,15.910 164.694,17.150 L164.694,24.500 L158.814,24.500 L158.814,7.670 L164.694,7.670 L164.694,10.640 C165.354,9.680 166.154,8.920 167.094,8.360 C168.034,7.800 169.044,7.520 170.124,7.520 L170.124,13.790 L168.474,13.790 C167.194,13.790 166.244,14.040 165.624,14.540 ZM151.644,6.110 C150.604,6.110 149.769,5.825 149.139,5.255 C148.509,4.685 148.194,3.970 148.194,3.110 C148.194,2.230 148.509,1.500 149.139,0.920 C149.769,0.340 150.604,0.050 151.644,0.050 C152.664,0.050 153.489,0.340 154.119,0.920 C154.749,1.500 155.064,2.230 155.064,3.110 C155.064,3.970 154.749,4.685 154.119,5.255 C153.489,5.825 152.664,6.110 151.644,6.110 ZM139.900,23.135 C138.230,24.045 136.295,24.500 134.095,24.500 L125.725,24.500 L125.725,3.350 L134.095,3.350 C136.315,3.350 138.260,3.795 139.930,4.685 C141.599,5.575 142.885,6.820 143.785,8.420 C144.685,10.020 145.135,11.850 145.135,13.910 C145.135,15.950 144.680,17.770 143.770,19.370 C142.859,20.970 141.569,22.225 139.900,23.135 ZM137.695,9.875 C136.715,8.925 135.365,8.450 133.645,8.450 L131.605,8.450 L131.605,19.310 L133.645,19.310 C135.365,19.310 136.715,18.840 137.695,17.900 C138.674,16.960 139.165,15.630 139.165,13.910 C139.165,12.170 138.674,10.825 137.695,9.875 ZM110.905,7.280 L110.485,0.440 L115.225,0.440 L114.865,7.280 L110.905,7.280 ZM100.885,15.470 C100.885,14.510 100.635,13.755 100.135,13.205 C99.635,12.655 98.965,12.380 98.125,12.380 C97.245,12.380 96.555,12.655 96.055,13.205 C95.555,13.755 95.305,14.510 95.305,15.470 L95.305,24.500 L89.425,24.500 L89.425,7.670 L95.305,7.670 L95.305,10.070 C95.825,9.310 96.525,8.695 97.405,8.225 C98.285,7.755 99.295,7.520 100.435,7.520 C102.375,7.520 103.915,8.165 105.055,9.455 C106.195,10.745 106.765,12.490 106.765,14.690 L106.765,24.500 L100.885,24.500 L100.885,15.470 ZM72.656,2.300 L78.536,2.300 L78.536,24.500 L72.656,24.500 L72.656,2.300 ZM58.136,17.270 C58.196,18.190 58.451,18.875 58.901,19.325 C59.351,19.775 59.925,20.000 60.626,20.000 C61.605,20.000 62.306,19.560 62.726,18.680 L68.996,18.680 C68.735,19.840 68.231,20.875 67.481,21.785 C66.731,22.695 65.786,23.410 64.646,23.930 C63.506,24.450 62.246,24.710 60.866,24.710 C59.205,24.710 57.731,24.360 56.441,23.660 C55.151,22.960 54.140,21.960 53.411,20.660 C52.680,19.360 52.316,17.830 52.316,16.070 C52.316,14.310 52.676,12.785 53.396,11.495 C54.116,10.205 55.121,9.210 56.411,8.510 C57.701,7.810 59.186,7.460 60.866,7.460 C62.525,7.460 63.995,7.800 65.276,8.480 C66.555,9.160 67.556,10.135 68.276,11.405 C68.996,12.675 69.356,14.170 69.356,15.890 C69.356,16.350 69.326,16.810 69.266,17.270 L58.136,17.270 ZM62.636,12.725 C62.156,12.315 61.556,12.110 60.836,12.110 C60.116,12.110 59.525,12.305 59.066,12.695 C58.605,13.085 58.305,13.660 58.166,14.420 L63.356,14.420 C63.356,13.700 63.116,13.135 62.636,12.725 ZM38.756,17.270 C38.816,18.190 39.071,18.875 39.521,19.325 C39.971,19.775 40.545,20.000 41.246,20.000 C42.225,20.000 42.926,19.560 43.346,18.680 L49.616,18.680 C49.356,19.840 48.851,20.875 48.101,21.785 C47.351,22.695 46.406,23.410 45.266,23.930 C44.126,24.450 42.866,24.710 41.486,24.710 C39.825,24.710 38.351,24.360 37.061,23.660 C35.771,22.960 34.761,21.960 34.031,20.660 C33.300,19.360 32.936,17.830 32.936,16.070 C32.936,14.310 33.296,12.785 34.016,11.495 C34.736,10.205 35.741,9.210 37.031,8.510 C38.321,7.810 39.806,7.460 41.486,7.460 C43.146,7.460 44.616,7.800 45.896,8.480 C47.175,9.160 48.176,10.135 48.896,11.405 C49.616,12.675 49.976,14.170 49.976,15.890 C49.976,16.350 49.946,16.810 49.886,17.270 L38.756,17.270 ZM43.256,12.725 C42.776,12.315 42.176,12.110 41.456,12.110 C40.736,12.110 40.146,12.305 39.686,12.695 C39.225,13.085 38.925,13.660 38.786,14.420 L43.976,14.420 C43.976,13.700 43.736,13.135 43.256,12.725 ZM21.296,18.110 L21.296,12.560 L19.226,12.560 L19.226,7.670 L21.296,7.670 L21.296,3.590 L27.206,3.590 L27.206,7.670 L30.266,7.670 L30.266,12.560 L27.206,12.560 L27.206,18.200 C27.206,18.660 27.311,18.990 27.521,19.190 C27.731,19.390 28.086,19.490 28.586,19.490 L30.296,19.490 L30.296,24.500 L27.746,24.500 C23.446,24.500 21.296,22.370 21.296,18.110 ZM8.186,10.955 C8.646,11.165 9.326,11.430 10.226,11.750 C11.566,12.210 12.671,12.665 13.541,13.115 C14.411,13.565 15.161,14.195 15.791,15.005 C16.421,15.815 16.736,16.840 16.736,18.080 C16.736,19.340 16.421,20.470 15.791,21.470 C15.161,22.470 14.251,23.260 13.061,23.840 C11.871,24.420 10.466,24.710 8.846,24.710 C6.386,24.710 4.366,24.125 2.786,22.955 C1.206,21.785 0.356,20.110 0.236,17.930 L6.506,17.930 C6.566,18.670 6.786,19.210 7.166,19.550 C7.546,19.890 8.036,20.060 8.636,20.060 C9.176,20.060 9.621,19.925 9.971,19.655 C10.321,19.385 10.496,19.010 10.496,18.530 C10.496,17.910 10.206,17.430 9.626,17.090 C9.046,16.750 8.106,16.370 6.806,15.950 C5.426,15.490 4.311,15.045 3.461,14.615 C2.611,14.185 1.871,13.555 1.241,12.725 C0.611,11.895 0.296,10.810 0.296,9.470 C0.296,8.110 0.636,6.945 1.316,5.975 C1.996,5.005 2.936,4.270 4.136,3.770 C5.336,3.270 6.696,3.020 8.216,3.020 C10.676,3.020 12.641,3.595 14.111,4.745 C15.581,5.895 16.366,7.510 16.466,9.590 L10.076,9.590 C10.056,8.950 9.861,8.470 9.491,8.150 C9.121,7.830 8.646,7.670 8.066,7.670 C7.626,7.670 7.266,7.800 6.986,8.060 C6.706,8.320 6.566,8.690 6.566,9.170 C6.566,9.570 6.721,9.915 7.031,10.205 C7.341,10.495 7.726,10.745 8.186,10.955 ZM154.554,24.500 L148.674,24.500 L148.674,7.670 L154.554,7.670 L154.554,24.500 ZM364.161,24.500 L358.281,24.500 L358.281,7.670 L364.161,7.670 L364.161,24.500 Z"/>
</svg>