<svg id="Layer" xmlns="http://www.w3.org/2000/svg" viewBox="0 0 799 320"><defs><style>.cls-1{fill:#ff6700;}.cls-2{fill:#fff;}</style></defs><path class="cls-1" d="M431,144a16,16,0,0,0,0,32H750.7L628,292.42A16,16,0,0,0,650,315.59L789.34,182.9a32,32,0,0,0,.28-45.53L650,4.41A16,16,0,0,0,628,27.59L750.19,144Z" transform="translate(0 0)"/><path class="cls-2" d="M16,144a16,16,0,0,0,0,32H335.7L213,292.42A16,16,0,0,0,235,315.59L374.34,182.9a32,32,0,0,0,.28-45.53L235,4.41A16,16,0,0,0,213,27.59L335.19,144Z" transform="translate(0 0)"/></svg>