<?xml version="1.0" encoding="utf-8"?>
<!-- Generator: Adobe Illustrator 25.0.0, SVG Export Plug-In . SVG Version: 6.00 Build 0)  -->
<svg version="1.1" id="Layer_1" xmlns="http://www.w3.org/2000/svg" xmlns:xlink="http://www.w3.org/1999/xlink" x="0px" y="0px"
	 viewBox="0 0 60 60" style="enable-background:new 0 0 60 60;" xml:space="preserve">
<style type="text/css">
	.st0{fill:#1B1A1A;}
</style>
<g>
	<path class="st0" d="M36,27.5c0,0.1,0,0.2-0.1,0.3l-5.6,5.6c-0.1,0.1-0.2,0.1-0.3,0.1c-0.1,0-0.2,0-0.3-0.1l-5.6-5.6
		C24,27.7,24,27.6,24,27.5c0-0.1,0-0.2,0.1-0.3l0.6-0.6c0.1-0.1,0.2-0.1,0.3-0.1s0.2,0,0.3,0.1l4.7,4.7l4.7-4.7
		c0.1-0.1,0.2-0.1,0.3-0.1s0.2,0,0.3,0.1l0.6,0.6C36,27.3,36,27.4,36,27.5z"/>
</g>
</svg>
